<svg width="28" height="28" viewBox="0 0 28 28" fill="none" xmlns="http://www.w3.org/2000/svg">
<path d="M13.8499 0.536331C6.30711 0.536331 0.191162 6.81082 0.191162 14.5426C0.191162 20.7318 4.10586 25.9758 9.53277 27.8294C9.60889 27.846 9.68659 27.8542 9.76448 27.8538C10.2706 27.8538 10.4657 27.4819 10.4657 27.1587C10.4657 26.8233 10.4535 25.9453 10.4474 24.7745C9.99561 24.8804 9.5334 24.9357 9.06935 24.9392C6.44126 24.9392 5.84369 22.8964 5.84369 22.8964C5.22173 21.2806 4.32537 20.8476 4.32537 20.8476C3.13633 20.0122 4.31928 19.9879 4.41074 19.9879H4.41684C5.78881 20.1098 6.50833 21.4391 6.50833 21.4391C7.19127 22.6342 8.10592 22.9696 8.92301 22.9696C9.46328 22.9588 9.9952 22.8341 10.484 22.6037C10.606 21.7013 10.9596 21.0854 11.3499 20.7318C8.31934 20.3781 5.13026 19.1769 5.13026 13.8109C5.13026 12.2804 5.66076 11.0304 6.53272 10.0548C6.39248 9.70111 5.92296 8.27426 6.66687 6.3474C6.76666 6.32352 6.86922 6.31326 6.97176 6.31691C7.46567 6.31691 8.58154 6.50594 10.423 7.78644C12.6606 7.1604 15.027 7.1604 17.2646 7.78644C19.1061 6.50594 20.222 6.31691 20.7159 6.31691C20.8184 6.31326 20.921 6.32352 21.0208 6.3474C21.7647 8.27426 21.2951 9.70111 21.1549 10.0548C22.0269 11.0365 22.5574 12.2865 22.5574 13.8109C22.5574 19.1891 19.3622 20.372 16.3195 20.7196C16.8073 21.1525 17.2463 22.0062 17.2463 23.3111C17.2463 25.1831 17.228 26.6953 17.228 27.1526C17.228 27.4819 17.417 27.8538 17.9231 27.8538C18.0051 27.8542 18.0868 27.846 18.1671 27.8294C23.6001 25.9758 27.5087 20.7257 27.5087 14.5426C27.5087 6.81082 21.3927 0.536331 13.8499 0.536331Z" fill="black"/>
</svg>
