<svg width="30" height="30" viewBox="0 0 30 30" fill="none" xmlns="http://www.w3.org/2000/svg">
<path d="M7.5 0H22.5C26.6421 0 30 3.35786 30 7.5V22.5C30 26.6421 26.6421 30 22.5 30H7.5C3.35786 30 0 26.6421 0 22.5V7.5C0 3.35786 3.35786 0 7.5 0Z" fill="black"/>
<path d="M21 14.055C21.1851 15.3034 20.9719 16.5783 20.3906 17.6985C19.8094 18.8187 18.8897 19.7271 17.7624 20.2945C16.6351 20.8619 15.3577 21.0594 14.1117 20.8589C12.8657 20.6584 11.7146 20.0701 10.8222 19.1777C9.92986 18.2854 9.34159 17.1343 9.14109 15.8883C8.94059 14.6423 9.13809 13.3648 9.70548 12.2376C10.2729 11.1103 11.1813 10.1906 12.3015 9.60936C13.4217 9.02811 14.6966 8.81488 15.945 8.99999C17.2184 9.18882 18.3973 9.78219 19.3075 10.6925C20.2178 11.6027 20.8112 12.7816 21 14.055Z" stroke="#F8F8F8" strokeWidth="2" strokeLinecap="round" strokeLinejoin="round"/>
<path d="M23.25 6.75H23.265" stroke="white" strokeWidth="2" stroke-linecap="round" strokeLinejoin="round"/>
</svg>
