<svg width="28" height="28" viewBox="0 0 28 28" fill="none" xmlns="http://www.w3.org/2000/svg">
<path d="M25.664 0.531174H2.86543C1.61968 0.531174 0.53125 1.42753 0.53125 2.65865V25.5078C0.53125 26.7456 1.61968 27.8487 2.86543 27.8487H25.6573C26.9097 27.8487 27.8487 26.7383 27.8487 25.5078V2.65865C27.8561 1.42753 26.9097 0.531174 25.664 0.531174ZM8.99906 23.3017H5.08559V11.1338H8.99906V23.3017ZM7.1777 9.28375H7.14965C5.89719 9.28375 5.0862 8.35142 5.0862 7.18433C5.0862 5.99589 5.91853 5.08551 7.19904 5.08551C8.47955 5.08551 9.26309 5.98919 9.29114 7.18433C9.29053 8.35142 8.47954 9.28375 7.1777 9.28375ZM23.3017 23.3017H19.3883V16.6485C19.3883 15.0546 18.8187 13.9655 17.4029 13.9655C16.3211 13.9655 15.6809 14.6972 15.3961 15.4101C15.2894 15.6662 15.2607 16.015 15.2607 16.3711V23.3017H11.3473V11.1338H15.2607V12.8271C15.8303 12.0161 16.7199 10.849 18.7901 10.849C21.359 10.849 23.3023 12.5423 23.3023 16.193L23.3017 23.3017Z" fill="black"/>
</svg>
