<svg width="32" height="24" viewBox="0 0 32 24" fill="none" xmlns="http://www.w3.org/2000/svg">
<path d="M31.0351 5.65778C31.0351 2.91384 29.0168 0.706485 26.5228 0.706485C23.1447 0.548556 19.6995 0.487579 16.1788 0.487579H15.0812C11.5689 0.487579 8.11765 0.548556 4.73955 0.707095C2.25171 0.707095 0.233381 2.92664 0.233381 5.67059C0.0809397 7.84074 0.0163045 10.0115 0.0199631 12.1823C0.0138654 14.353 0.0829722 16.5258 0.227283 18.7007C0.227283 21.4446 2.24561 23.6703 4.73345 23.6703C8.28229 23.8349 11.9226 23.9081 15.6239 23.902C19.3312 23.9142 22.9614 23.8369 26.5143 23.6703C29.0082 23.6703 31.0265 21.4446 31.0265 18.7007C31.1729 16.5238 31.24 14.353 31.2339 12.1762C31.2477 10.0054 31.1814 7.83261 31.0351 5.65778ZM12.6421 18.1641V6.18218L21.4837 12.1701L12.6421 18.1641Z" fill="black"/>
</svg>
