<svg width="13" height="13" viewBox="0 0 13 13" fill="none" xmlns="http://www.w3.org/2000/svg">
<path d="M1.91079 11.5906L0.889679 0.137314H12.1103L11.0882 11.5889L6.49319 12.8628L1.91079 11.5906Z" fill="#1572B6"/>
<path d="M6.50012 11.8891L10.2131 10.8597L11.0867 1.07373H6.50012V11.8891Z" fill="#33A9DC"/>
<path d="M6.50012 5.22325H8.35892L8.48729 3.78482H6.50012V2.38011H10.0225L9.98879 2.75701L9.64348 6.62796H6.50012V5.22325Z" fill="white"/>
<path d="M6.50841 8.87138L6.50221 8.87321L4.93785 8.45081L4.83781 7.33047H3.42792L3.62464 9.53611L6.50201 10.3347L6.50841 10.3329V8.87138Z" fill="#EBEBEB"/>
<path d="M8.23945 6.56856L8.07024 8.4497L6.50354 8.8726V10.3341L9.38324 9.53601L9.40437 9.29866L9.64873 6.56856H8.23945Z" fill="white"/>
<path d="M6.50488 2.38011V3.78482H3.11188L3.08375 3.46917L3.01976 2.75701L2.98615 2.38011H6.50488ZM6.50011 5.22346V6.62817H4.95544L4.92731 6.31251L4.86322 5.60035L4.82971 5.22346H6.50011Z" fill="#EBEBEB"/>
</svg>
