<svg width="17" height="15" viewBox="0 0 17 15" fill="none" xmlns="http://www.w3.org/2000/svg">
<g clip-path="url(#clip0_6_3)">
<path d="M2.46428 13.1339L1.16916 0.246155H15.4L14.1035 13.1319L8.27592 14.5652L2.46428 13.1339Z" fill="#E44D26"/>
<path d="M8.28461 13.4697L12.9936 12.3113L14.1016 1.2999H8.28461V13.4697Z" fill="#F16529"/>
<path d="M8.2846 6.07977H5.92712L5.76427 4.4611H8.2846V2.88055H3.81726L3.85998 3.30457L4.29777 7.66043H8.2846V6.07977ZM8.2846 10.1848L8.27671 10.1868L6.29267 9.71128L6.16595 8.45082H4.37738L4.62695 10.9326L8.27645 11.8314L8.2846 11.8294V10.1848Z" fill="#EBEBEB"/>
<path d="M8.27841 6.07977V7.66043H10.4721L10.2654 9.71036L8.27841 10.1862V11.8307L11.9308 10.9326L11.9576 10.6656L12.3762 6.50425L12.4195 6.07977H11.9396H8.27841ZM8.27841 2.88055V4.4611H12.5817L12.6175 4.10599L12.6988 3.30457L12.7414 2.88055H8.27841Z" fill="white"/>
</g>
<defs>
<clipPath id="clip0_6_3">
<rect width="16.5692" height="14.7006" fill="white" transform="translate(0 0.0554047)"/>
</clipPath>
</defs>
</svg>
