<svg width="15" height="15" viewBox="0 0 15 15" fill="none" xmlns="http://www.w3.org/2000/svg">
<g clip-path="url(#clip0_8_83)">
<path d="M0.164978 2.165C0.164978 1.06043 1.06041 0.164993 2.16498 0.164993H12.835C13.9396 0.164993 14.835 1.06042 14.835 2.16499V12.8351C14.835 13.9397 13.9395 14.8351 12.835 14.8351H2.16498C1.06041 14.8351 0.164978 13.9397 0.164978 12.8351V2.165Z" fill="#F0DB4F"/>
<path d="M13.6344 11.3363C13.527 10.667 13.0906 10.1049 11.7979 9.58067C11.3488 9.3743 10.8482 9.22653 10.699 8.88622C10.646 8.68817 10.639 8.57661 10.6725 8.45673C10.7687 8.06766 11.2331 7.94638 11.6012 8.05794C11.8383 8.13739 12.0627 8.32009 12.1981 8.61153C12.8311 8.20161 12.8298 8.20431 13.2719 7.92259C13.11 7.67169 13.0237 7.55591 12.9177 7.44856C12.537 7.02329 12.0182 6.80427 11.1885 6.82102L10.7563 6.87692C10.3422 6.98157 9.94748 7.19895 9.71603 7.4904C9.02158 8.27837 9.21963 9.65743 10.0647 10.225C10.8972 10.8498 12.1201 10.992 12.2763 11.5763C12.4283 12.2916 11.7506 12.5231 11.077 12.4409C10.5806 12.3376 10.3045 12.0853 10.0061 11.6265C9.4567 11.9445 9.4567 11.9445 8.89185 12.2693C9.0258 12.5622 9.16654 12.6947 9.39107 12.9484C10.4537 14.0263 13.1129 13.9733 13.5899 12.3418C13.6092 12.2858 13.7377 11.9122 13.6344 11.3363ZM8.1401 6.90739H6.76795L6.76232 10.4549C6.76232 11.2093 6.80135 11.901 6.67865 12.113C6.47791 12.5299 5.95771 12.4783 5.72064 12.3974C5.47935 12.2788 5.35666 12.1102 5.21451 11.8718C5.17549 11.8034 5.14619 11.7504 5.13635 11.7463L4.02072 12.4295C4.20623 12.8102 4.47951 13.1407 4.82955 13.3554C5.35244 13.6692 6.05521 13.7654 6.79021 13.5967C7.26857 13.4574 7.68131 13.1687 7.8974 12.7294C8.20982 12.1534 8.14279 11.4563 8.13998 10.6852C8.14701 9.42716 8.1401 8.16938 8.1401 6.90739Z" fill="#323330"/>
</g>
<defs>
<clipPath id="clip0_8_83">
<rect width="15" height="15" fill="white"/>
</clipPath>
</defs>
</svg>
