<svg width="17" height="16" viewBox="0 0 17 16" fill="none" xmlns="http://www.w3.org/2000/svg">
<path d="M14.7045 12.2259C13.8416 12.2025 13.1826 12.2824 12.6192 12.5185C12.4591 12.5856 12.2036 12.5875 12.1775 12.7869C12.2655 12.8785 12.2792 13.0155 12.3491 13.1283C12.4836 13.3445 12.7107 13.6348 12.9134 13.7868C13.1349 13.953 13.3631 14.1306 13.6005 14.2745C14.0228 14.5304 14.4941 14.6766 14.9006 14.933C15.1403 15.0843 15.3783 15.2746 15.612 15.4451C15.7277 15.5295 15.8053 15.6606 15.9556 15.7135V15.6893C15.8766 15.5893 15.8562 15.452 15.7838 15.3476L15.4648 15.0305C15.153 14.619 14.757 14.2575 14.3362 13.9574C14.0006 13.7179 13.2496 13.3944 13.1097 13.0063L13.0851 12.9819C13.323 12.9551 13.6015 12.8696 13.8212 12.811C14.1901 12.7128 14.5198 12.7381 14.9006 12.6404L15.4158 12.494V12.3965C15.2233 12.2001 15.086 11.9401 14.8761 11.7624C14.3267 11.2974 13.7271 10.8328 13.1098 10.4453C12.7673 10.2305 12.3442 10.0909 11.9812 9.90876C11.8591 9.84739 11.6446 9.81551 11.564 9.71351C11.3733 9.47201 11.2695 9.16576 11.1225 8.88439C10.8146 8.29476 10.5122 7.65089 10.2394 7.03051C10.0533 6.60751 9.9317 6.19051 9.6996 5.81101C8.58558 3.99014 7.38657 2.89126 5.52908 1.81101C5.13377 1.58126 4.65786 1.49064 4.15492 1.37189C3.88522 1.35576 3.61527 1.33939 3.34544 1.32301C3.1806 1.25476 3.00935 1.05439 2.85482 0.957136C2.23947 0.570636 0.660989 -0.269989 0.205324 0.835261C-0.0824839 1.53289 0.635465 2.21339 0.89209 2.56701C1.07239 2.81476 1.30312 3.09289 1.43187 3.37176C1.51662 3.55514 1.5312 3.73901 1.60375 3.93289C1.78192 4.41064 1.9372 4.93039 2.16793 5.37176C2.28448 5.59526 2.41298 5.83051 2.56047 6.03026C2.65075 6.15289 2.80578 6.20689 2.83017 6.39614C2.67879 6.60689 2.67011 6.93414 2.58499 7.20114C2.2015 8.40301 2.34622 9.89701 2.90398 10.7865C3.07498 11.0598 3.47821 11.6454 4.03245 11.4206C4.51729 11.2244 4.40903 10.6159 4.54772 10.0791C4.57903 9.95751 4.55979 9.86801 4.62127 9.78651V9.81089L5.06298 10.6889C5.38989 11.2123 5.96978 11.7591 6.46141 12.1281C6.71628 12.3195 6.91695 12.6503 7.2465 12.7623V12.7378H7.22198C7.15811 12.6389 7.05815 12.5979 6.97667 12.5184C6.78468 12.3313 6.57118 12.0986 6.4125 11.8843C5.96538 11.2809 5.57032 10.6205 5.21034 9.93314C5.03834 9.60476 4.88884 9.24276 4.74399 8.90864C4.68816 8.77989 4.68892 8.58501 4.57249 8.51839C4.41368 8.76314 4.17994 8.96114 4.05723 9.25014C3.86095 9.71214 3.83568 10.2756 3.76288 10.8599C3.71988 10.8751 3.73899 10.8646 3.71372 10.8841C3.37197 10.8023 3.25202 10.4526 3.1249 10.1525C2.80377 9.39376 2.74405 8.17226 3.0267 7.29889C3.09988 7.07276 3.43031 6.36126 3.29653 6.15239C3.23265 5.94414 3.02192 5.82364 2.90411 5.66451C2.75813 5.46776 2.61253 5.20876 2.51131 4.98151C2.24852 4.39014 2.12581 3.72601 1.84906 3.12801C1.71666 2.84214 1.49298 2.55276 1.30928 2.29876C1.10597 2.01714 0.878134 1.80976 0.720462 1.46939C0.664384 1.34839 0.588314 1.15464 0.671299 1.03026C0.697704 0.946386 0.735173 0.911386 0.818535 0.884011C0.960868 0.774886 1.35719 0.920261 1.5053 0.981386C1.89873 1.14389 2.22715 1.29864 2.56047 1.51814C2.72028 1.62364 2.88223 1.82751 3.07561 1.88401H3.2964C3.6418 1.96289 4.02868 1.90839 4.35145 2.00589C4.92178 2.17814 5.4329 2.44626 5.89698 2.73764C7.311 3.62539 8.46727 4.88889 9.25814 6.39626C9.38538 6.63901 9.44046 6.87051 9.55249 7.12801C9.77856 7.64714 10.0633 8.18126 10.2883 8.68901C10.5129 9.19551 10.7316 9.70664 11.049 10.1281C11.2158 10.3496 11.8601 10.4685 12.1531 10.5916C12.3583 10.6778 12.6946 10.7678 12.8891 10.8841C13.2604 11.1069 13.6203 11.372 13.9687 11.616C14.1426 11.7379 14.6778 12.0055 14.7045 12.2259ZM3.73798 2.93326C3.55806 2.92989 3.43081 2.95276 3.29627 2.98189V3.00626H3.32079C3.40667 3.18151 3.55818 3.29451 3.66418 3.44539C3.7459 3.61626 3.82776 3.78689 3.90961 3.95751L3.934 3.93339C4.08602 3.82676 4.15555 3.65664 4.15467 3.39664C4.09381 3.33301 4.08489 3.25326 4.03208 3.17726C3.96217 3.07589 3.8265 3.01826 3.73798 2.93326Z" fill="#00618A"/>
</svg>
