<svg width="16" height="16" viewBox="0 0 16 16" fill="none" xmlns="http://www.w3.org/2000/svg">
<g clip-path="url(#clip0_8_166)">
<path d="M8 0C3.5875 0 0 3.5875 0 8C0 12.4125 3.5875 16 8 16C12.4125 16 16 12.4125 16 8C16 3.5875 12.4125 0 8 0ZM12.0875 14.3L6.05 5.225H5.2V11.4875H6.05V6.9125L11.575 14.6C10.5125 15.175 9.3 15.5 8 15.5C3.85 15.5125 0.4875 12.15 0.4875 8C0.4875 3.85 3.85 0.4875 8 0.4875C12.15 0.4875 15.5125 3.85 15.5125 8C15.5125 10.6375 14.15 12.9625 12.0875 14.3Z" fill="#E8E8E8"/>
<path d="M9.825 9.16251L10.7625 10.575V5.22501H9.825V9.16251Z" fill="#E8E8E8"/>
</g>
<defs>
<clipPath id="clip0_8_166">
<rect width="16" height="16" fill="white"/>
</clipPath>
</defs>
</svg>
