<svg width="22" height="22" viewBox="0 0 14 16" fill="none" xmlns="http://www.w3.org/2000/svg">
<path d="M13.0964 3.79175L7.58425 0.591127C7.23663 0.393127 6.784 0.393127 6.43363 0.591127L0.862625 3.79175C0.503875 3.99813 0.25 4.386 0.25 4.80088V11.1936C0.25 11.6085 0.5105 11.9965 0.86925 12.204L2.34113 13.04C3.04463 13.3865 3.29325 13.3865 3.61338 13.3865C4.655 13.3865 5.25 12.7566 5.25 11.658V5.34675C5.25 5.25763 5.20363 5.125 5.11613 5.125H4.41325C4.32425 5.125 4.125 5.25763 4.125 5.34663V11.6579C4.125 12.1449 3.6845 12.6295 2.86125 12.2179L1.34037 11.3413C1.28737 11.3125 1.25 11.2546 1.25 11.1936V4.80088C1.25 4.74063 1.31938 4.68013 1.37275 4.64925L6.92575 1.45413C6.97762 1.42475 7.05387 1.42475 7.10563 1.45413L12.5909 4.6485C12.6434 4.68013 12.6249 4.73875 12.6249 4.80088V11.1936C12.6249 11.2546 12.6477 11.314 12.5959 11.3434L7.08512 14.5404C7.03788 14.5688 6.97925 14.5688 6.9275 14.5404L5.51412 13.6967C5.4715 13.672 5.42088 13.6631 5.38 13.686C4.98675 13.9089 4.91425 13.9385 4.54537 14.0664C4.45462 14.098 4.32075 14.1529 4.59662 14.3075L6.44637 15.4017C6.62297 15.5038 6.82331 15.5575 7.02725 15.5575C7.2325 15.5575 7.4335 15.5042 7.61063 15.4017L13.0962 12.204C13.455 11.995 13.625 11.6085 13.625 11.1936V4.80088C13.625 4.386 13.455 3.99913 13.0964 3.79175ZM8.73875 10.1806C7.273 10.1806 6.95013 9.77625 6.8425 9.04738C6.83 8.96888 6.76337 8.875 6.6835 8.875H5.96712C5.8785 8.875 5.80725 8.9825 5.80725 9.07075C5.80725 10.004 6.31463 11.1348 8.73888 11.1348C10.4938 11.1348 11.4999 10.4529 11.4999 9.24613C11.4999 8.04963 10.6915 7.73563 8.98962 7.51038C7.26937 7.283 7.09463 7.16813 7.09463 6.76513C7.09463 6.43288 7.24262 5.98975 8.51637 5.98975C9.6545 5.98975 10.074 6.234 10.2466 7.00113C10.2614 7.07325 10.3272 7.125 10.4016 7.125H11.1209C11.1651 7.125 11.2074 7.10713 11.2384 7.0755C11.2684 7.0415 11.2842 6.99888 11.2802 6.95313C11.1689 5.63213 10.2912 5.0165 8.51625 5.0165C6.93737 5.0165 5.9955 5.68325 5.9955 6.80088C5.9955 8.01313 6.93262 8.34813 8.44825 8.498C10.2614 8.67575 10.4024 8.94075 10.4024 9.29738C10.4024 9.91675 9.90513 10.1806 8.73875 10.1806Z" fill="#83CD29"/>
</svg>
