<svg width="16" height="16" viewBox="0 0 16 16" fill="none" xmlns="http://www.w3.org/2000/svg">
<path d="M8.00001 9.425C8.78702 9.425 9.42501 8.787 9.42501 8C9.42501 7.21299 8.78702 6.575 8.00001 6.575C7.21301 6.575 6.57501 7.21299 6.57501 8C6.57501 8.787 7.21301 9.425 8.00001 9.425Z" fill="#61DAFB"/>
<path d="M13.4125 5.65C13.1375 5.55 12.85 5.45 12.55 5.3625C12.625 5.0625 12.6875 4.7625 12.7375 4.475C13 2.825 12.7125 1.6625 11.9125 1.2125C11.675 1.075 11.4125 1.0125 11.1125 1.0125C10.2375 1.0125 9.12499 1.6625 7.99999 2.75C6.87499 1.6625 5.76249 1.0125 4.88749 1.0125C4.58749 1.0125 4.32499 1.075 4.08749 1.2125C3.28749 1.675 2.99999 2.8375 3.26249 4.475C3.31249 4.7625 3.37499 5.0625 3.44999 5.3625C3.14999 5.45 2.86249 5.5375 2.58749 5.65C1.02499 6.25 0.174988 7.075 0.174988 8C0.174988 8.925 1.03749 9.75 2.58749 10.35C2.86249 10.45 3.14999 10.55 3.44999 10.6375C3.37499 10.9375 3.31249 11.2375 3.26249 11.525C2.99999 13.175 3.28749 14.3375 4.08749 14.7875C4.32499 14.925 4.58749 14.9875 4.88749 14.9875C5.77499 14.9875 6.88749 14.3375 7.99999 13.25C9.12499 14.3375 10.2375 14.9875 11.1125 14.9875C11.4125 14.9875 11.675 14.925 11.9125 14.7875C12.7125 14.325 13 13.1625 12.7375 11.525C12.6875 11.2375 12.625 10.9375 12.55 10.6375C12.85 10.55 13.1375 10.4625 13.4125 10.35C14.975 9.75 15.825 8.925 15.825 8C15.825 7.075 14.975 6.25 13.4125 5.65ZM11.5625 1.8375C12.075 2.1375 12.25 3.0625 12.0375 4.375C12 4.6375 11.9375 4.9125 11.8625 5.2C11.2125 5.05 10.525 4.95 9.79999 4.8875C9.37499 4.2875 8.93749 3.75 8.49999 3.2625C9.42499 2.35 10.3625 1.725 11.125 1.725C11.2875 1.725 11.4375 1.7625 11.5625 1.8375ZM10.1625 9.25C9.93749 9.65 9.67499 10.05 9.39999 10.45C8.93749 10.4875 8.47499 10.5 7.99999 10.5C7.51249 10.5 7.04999 10.4875 6.59999 10.45C6.32499 10.05 6.07499 9.65 5.84999 9.25C5.61249 8.8375 5.38749 8.4125 5.18749 8C5.38749 7.5875 5.61249 7.1625 5.84999 6.75C6.07499 6.35 6.33749 5.95 6.61249 5.55C7.07499 5.5125 7.53749 5.5 8.01249 5.5C8.49999 5.5 8.96249 5.5125 9.41249 5.55C9.68749 5.95 9.93749 6.35 10.1625 6.75C10.4 7.1625 10.625 7.5875 10.825 8C10.6125 8.4125 10.4 8.825 10.1625 9.25ZM11.2 8.8375C11.3875 9.275 11.5375 9.7 11.675 10.125C11.25 10.225 10.8 10.3 10.325 10.3625C10.475 10.125 10.6375 9.875 10.775 9.6125C10.925 9.35 11.0625 9.0875 11.2 8.8375ZM7.99999 12.225C7.69999 11.9 7.41249 11.55 7.13749 11.1875C7.42499 11.2 7.71249 11.2125 7.99999 11.2125C8.28749 11.2125 8.57499 11.2 8.86249 11.1875C8.58749 11.55 8.29999 11.9 7.99999 12.225ZM5.67499 10.35C5.19999 10.2875 4.74999 10.2125 4.32499 10.1125C4.46249 9.7 4.61249 9.2625 4.79999 8.825C4.93749 9.075 5.07499 9.3375 5.22499 9.5875C5.37499 9.8625 5.52499 10.1 5.67499 10.35ZM4.79999 7.1625C4.61249 6.725 4.46249 6.3 4.32499 5.875C4.74999 5.775 5.19999 5.7 5.67499 5.6375C5.52499 5.875 5.36249 6.125 5.22499 6.3875C5.07499 6.65 4.93749 6.9125 4.79999 7.1625ZM7.99999 3.775C8.29999 4.1 8.58749 4.45 8.86249 4.8125C8.57499 4.8 8.28749 4.7875 7.99999 4.7875C7.71249 4.7875 7.42499 4.8 7.13749 4.8125C7.41249 4.45 7.69999 4.1 7.99999 3.775ZM10.775 6.4L10.325 5.65C10.8 5.7125 11.25 5.7875 11.675 5.8875C11.5375 6.3 11.3875 6.7375 11.2 7.175C11.0625 6.9125 10.925 6.65 10.775 6.4ZM3.96249 4.375C3.74999 3.0625 3.92499 2.1375 4.43749 1.8375C4.56249 1.7625 4.71249 1.725 4.87499 1.725C5.62499 1.725 6.56249 2.3375 7.49999 3.2625C7.06249 3.7375 6.62499 4.2875 6.19999 4.8875C5.47499 4.95 4.78749 5.0625 4.13749 5.2C4.06249 4.9125 4.01249 4.6375 3.96249 4.375ZM0.874988 8C0.874988 7.4125 1.58749 6.7875 2.83749 6.325C3.08749 6.225 3.36249 6.1375 3.63749 6.0625C3.83749 6.6875 4.08749 7.35 4.38749 8.0125C4.08749 8.675 3.82499 9.325 3.63749 9.95C1.91249 9.45 0.874988 8.7 0.874988 8ZM4.43749 14.1625C3.92499 13.8625 3.74999 12.9375 3.96249 11.625C3.99999 11.3625 4.06249 11.0875 4.13749 10.8C4.78749 10.95 5.47499 11.05 6.19999 11.1125C6.62499 11.7125 7.06249 12.25 7.49999 12.7375C6.57499 13.65 5.63749 14.275 4.87499 14.275C4.71249 14.275 4.56249 14.2375 4.43749 14.1625ZM12.0375 11.625C12.25 12.9375 12.075 13.8625 11.5625 14.1625C11.4375 14.2375 11.2875 14.275 11.125 14.275C10.375 14.275 9.43749 13.6625 8.49999 12.7375C8.93749 12.2625 9.37499 11.7125 9.79999 11.1125C10.525 11.05 11.2125 10.9375 11.8625 10.8C11.9375 11.0875 11.9875 11.3625 12.0375 11.625ZM13.1625 9.675C12.9125 9.775 12.6375 9.8625 12.3625 9.9375C12.1625 9.3125 11.9125 8.65 11.6125 7.9875C11.9125 7.325 12.175 6.675 12.3625 6.05C14.0875 6.55 15.125 7.3 15.125 8C15.125 8.5875 14.4 9.2125 13.1625 9.675Z" fill="#61DAFB"/>
</svg>
