<svg width="17" height="16" viewBox="0 0 17 16" fill="none" xmlns="http://www.w3.org/2000/svg">
<g clip-path="url(#clip0_8_140)">
<path d="M8.3255 3.20026C6.27213 3.20026 4.98924 4.26651 4.4755 6.39988C5.24526 5.33351 6.14388 4.93363 7.17026 5.20026C7.7563 5.35201 8.17511 5.79351 8.63892 6.28276C9.39376 7.07863 10.2675 8.00001 12.1755 8.00001C14.2288 8.00001 15.5118 6.93363 16.0255 4.79976C15.2556 5.86676 14.3571 6.26663 13.3306 6.00001C12.7447 5.84813 12.3264 5.40676 11.862 4.91751C11.1076 4.12163 10.2341 3.20026 8.3255 3.20026ZM4.4755 8.00001C2.42225 8.00001 1.13924 9.06638 0.625504 11.2003C1.39526 10.1333 2.29376 9.73338 3.32026 10C3.90631 10.1519 4.32511 10.5933 4.78892 11.0825C5.54376 11.8784 6.41747 12.7998 8.3255 12.7998C10.3788 12.7998 11.6618 11.7335 12.1755 9.60013C11.4056 10.6665 10.5071 11.0664 9.48062 10.7998C8.8947 10.648 8.47638 10.2065 8.01197 9.71726C7.25761 8.92138 6.38414 8.00001 4.4755 8.00001Z" fill="#38B2AC"/>
</g>
<defs>
<clipPath id="clip0_8_140">
<rect width="15.4" height="16" fill="white" transform="translate(0.625)"/>
</clipPath>
</defs>
</svg>
