<svg width="16" height="16" viewBox="0 0 16 16" fill="none" xmlns="http://www.w3.org/2000/svg">
<g clip-path="url(#clip0_8_148)">
<path d="M2.83374 5.875H15.2925V15.0837H2.83374V5.875Z" fill="white"/>
<path d="M0.1875 7.98874V15.8012H15.8125V0.176239H0.1875V7.98874ZM12.7788 7.36374C13.153 7.45059 13.4931 7.64632 13.7563 7.92624C13.9011 8.07704 14.027 8.24495 14.1313 8.42624C14.1313 8.44624 13.4563 8.90249 13.045 9.15749C13.03 9.16749 12.97 9.10249 12.9038 9.00374C12.8287 8.8742 12.722 8.76579 12.5937 8.68863C12.4654 8.61147 12.3196 8.56807 12.17 8.56249C11.6962 8.52999 11.3913 8.77874 11.3938 9.18749C11.3898 9.28926 11.4131 9.39023 11.4613 9.47999C11.565 9.69624 11.7587 9.82499 12.3663 10.0875C13.485 10.5687 13.9637 10.8862 14.2612 11.3375C14.5938 11.8375 14.6675 12.645 14.4425 13.2425C14.1925 13.8925 13.58 14.3337 12.7137 14.48C12.3181 14.5253 11.9184 14.5211 11.5238 14.4675C10.919 14.3678 10.3619 14.0774 9.93375 13.6387C9.79 13.48 9.51 13.0662 9.5275 13.0362C9.57313 13.0024 9.62118 12.9719 9.67125 12.945L10.25 12.625L10.6987 12.365L10.7925 12.5037C10.9507 12.7301 11.1521 12.9229 11.385 13.0712C11.885 13.3337 12.5675 13.2975 12.905 12.9937C13.0183 12.8824 13.089 12.7349 13.1048 12.5769C13.1205 12.4188 13.0804 12.2602 12.9913 12.1287C12.8663 11.955 12.6162 11.8087 11.9175 11.5037C11.1112 11.1562 10.7638 10.9412 10.4462 10.5987C10.248 10.3727 10.1017 10.1061 10.0175 9.81749C9.95469 9.48779 9.94541 9.15014 9.99 8.81749C10.1562 8.03874 10.74 7.49499 11.5925 7.33374C11.9873 7.28489 12.3872 7.29585 12.7788 7.36624V7.36374ZM9.11125 8.01874V8.65874H7.0825V14.4375H5.64375V8.65749H3.61V8.03249C3.60367 7.81696 3.60867 7.60124 3.625 7.38624C3.635 7.37499 4.875 7.37499 6.375 7.37499H9.10375L9.11125 8.01874Z" fill="#007ACC"/>
</g>
<defs>
<clipPath id="clip0_8_148">
<rect width="16" height="16" rx="2" fill="white"/>
</clipPath>
</defs>
</svg>
